<?xml version="1.0" encoding="utf-8"?>

<svg version="1.1" xmlns="http://www.w3.org/2000/svg" xmlns:xlink="http://www.w3.org/1999/xlink" viewBox="0 0 600 970" xml:space="preserve">
<defs>
    <style>
        .br {
            font-family: British Rail Dark Normal;
        }
        .hel {
            font-family: Helvetica;
            font-weight: 400;
        }
        .main {
            font-size: 60.5px;
        }
        .ms {
            font-size: 42.5px;
        }
        .sub {
            font-size: 34px;
        }
        .detail {
            font-size: 9.6px;
        }
        .lsp {
            letter-spacing:-2px;
        }
        .red {
            fill:#BE1E2D;
        }
        .blue {
            fill:#334581;
        }
        .white {
            fill:#ffffff;
        }
        .grey {
            fill:#404044;
        }
        .grey-1 {
            fill:#a5aebf;
        }
        .black {
            fill:#000008;
        }
        .yellow {
            fill:#FFFF00;
        }
        .s-red {
            stroke:#BE1E2D;
        }
        .s-blue {
            stroke:#334581;
        }
        .s-black {
            stroke:#000008;
        }
        .train {
            fill-opacity:1;
        }
        .done {
            fill-opacity:1;
        }
        .reflection {
            stroke-linecap:round;
            stroke:white;
            stroke-width:2;
            fill:none;
            stroke-opacity:0.6;
        }
        .ry {
            stroke-linecap:round;
            stroke:#ffff00;
            stroke-width:2;
            fill:none;
            stroke-opacity:1;
        }

        .str {
            stroke:magenta;
            stroke-opacity:0.7;
            stroke-width:1px;
            fill:none;
        }
        .headbox {
            stroke:white;
            fill:none;
        }
        .ls_5 {
            stroke-width:0.5px;
        }
        .ls1 {
            stroke-width:1px;
        }
    </style>
    <g id="brlogo" transform="scale(1.3,1.3)">
       <path class="red" d="M -12,-11.5 h 9 l 11.5,5.5 h 10.5 v 3.75 h -10.5 l -9.25,4.5 h 19.75 v 3.75 h -19.75 l 12.75,5.5 h -9 l -11.5,-5.5 h -10.5 v -3.75 h 10.5 l 9.25,-4.5 h -19.75 v -3.75 h 19.75 Z" />
    </g>
    <clipPath id="round">
        <circle cx="0" cy="0" r="226" />
    </clipPath>
    <g id="beam-1" transform="rotate(-52.6)">
        <path d="M 8,0 h -16 l -142,-1000 h 284 Z" class="white" />
        <circle cx="0" cy="0" r="8" class="white" />
    </g>
    <g id="beam-2" transform="rotate(-37)">
        <path d="M 9,0 h -18 l -165,-1000 h 330 Z" class="white" />
        <circle cx="0" cy="0" r="9" class="white" />
    </g>
    <clipPath id="lightclip">
        <circle cx="0" cy="0" r="6" />
    </clipPath>
    <g id="light">
        <circle class="blue train" r="8" />
        <circle class="yellow train" cx="-1" cy="-1" r="7" />

        <circle class="blue train" r="6" />
        <circle class="yellow train" cx="2" cy="2" r="6" clip-path="url(#lightclip)" />
    </g>
    <g id="light2">
        <circle class="blue train" cx="1" cy="1" r="6" />
        <circle class="yellow train" cx="-2" cy="-2" r="6" />

        <circle class="blue train" r="6" />
        <circle class="yellow train" cx="2" cy="2" r="6" clip-path="url(#lightclip)" />

        <circle class="blue train" cx="1" cy="1" r="4" />
    </g>
    <g id="train" transform="rotate(24)"> <!-- 24 -->
        <g clip-path="url(#round)">
            <circle cx="0" cy="0" r="226" stroke-width="2" class="grey-1 train" />
            <path d="M -170,133 m 392,0 m0,-45  m 0,-3  q -165,-4 -265,-130 q -45,-50 -140,10 h 50" stroke-width="5" stroke="white" fill="none" />
            <path d="M -170,133 h 392 v -45 q -165,-4 -265,-130 q -45,-50 -155,5 v 2 l 6,6 l -1,50 q -5,45 0,71 h 6 l 2,24 h 4 q 0,8.5 6,17 Z" class="train blue" />

            <path d="M -190,-33 l 146,-4 q 7,0 7,7 l 1,46 l -2,2 v 73 h -154 q -5,-25 0,-70" class="yellow train" />

            <path d="M -180,-30 h 42 v 46 q 0,4 -4,4 h -38 q -4,0 -4,-4 v -42 q 0,-4 4,-4 Z" class="train blue" />
            <path d="M -130,-32 h 28 q 4,0 4,4 v 43 q 0,4 -4,4 h -28 q -4,0 -4,-4 v -43 q 0,-4 4,-4 Z" class="train blue" />

            <path d="M -88,-34 h 38 q 4,0 4,4 v 42 q 0,4 -4,4 h -38 q -4,0 -4,-4 v -42 q 0,-4 4,-4 Z" class="train blue" />

            <path d="M -189,25 l 145,-3 q 2,2 0,4 l -145,3 q -2,-2 0,-4 Z" class="train blue" />
            <use x="-116" y="69" xlink:href="#light" />
            <use x="-143" y="40" xlink:href="#light2" />

            <path d="M -154,32 l 1,20 l 70,-1 v -2 l -69,1 l -1,-18 Z" class="blue train" />

            <!-- cab window surround -->
            <path d="M-36,18 l 8,4 v -44 l -3,-1.5 v 39 l -8,-4 Z" class="white train" />
            <!-- handle -->
            <path d="M-36,23 l 6,3 v 5 l -6,-3 Z" class="white train" />
            <!-- upper window -->
            <path d="M-16,-9 v 24" class="reflection" />
            <path d="M-20,23 l 35.5,20" class="reflection" />
            <path d="M15,22 v 16" class="reflection" />
            <path d="M25,25 v 16" class="reflection" />

            <!-- solebar -->
            <path d="M-18,100 v 12" class="reflection" />
            <path d="M-18,110 l 10,3 l -10,-1 Z" class="white train" />

            <path d="M-38,90 l 30,9" class="reflection" />
            <path d="M-3,101 l 24,7" class="reflection" />
            <path d="M30,111 l 13,3" class="reflection" />
            <path d="M52,117 l 13,2.75" class="reflection" />
            <path d="M76,123 l 26,4.5" class="reflection" />

            <!-- headcode box -->
            <path d="M -132,-51 h 30" class="headbox ls1" />
            <path d="M -102,-51 v -8" class="headbox ls_5" />

            <!-- lit windows -->
            <circle cx="105" cy="72" r="1.5" class="yellow" />
            <path d="M 105,77 v 6" class="ry" />
            <rect x="181" y="89" width="4" height="3" rx="2" ry="2" class="yellow" />
            <rect x="181" y="94" width="4" height="6" rx="2" ry="2" class="yellow" />
        </g>
        <use x="-172" y="69" xlink:href="#beam-1" />

        <use x="-63" y="68" xlink:href="#beam-2" />
    </g>
    <clipPath id="posterclip"> <!-- extent 600 970 -->
        <rect x="15" y="15" width="570" height="940" />
    </clipPath>
    <clipPath id="fullclip">
        <path d="M 0,0 h 205 l 10,150 h -153 Z" fill="magenta" />
    </clipPath>
</defs>
<!--
<image xlink:href="intercity-sleepers.png" x="0" y="0" />
<image xlink:href="intercity-sleepers-flat.png" x="0" y="0" />
-->
<rect x="0" y="0" height="100%" width="100%" class="white" />

<g clip-path="url(#posterclip)">
    <rect x="0" y="0" width="100%" height="100%" class="blue done" />
    <use x="324" y="520" xlink:href="#train" />
    <path d="M 0,520 l 600,267 v 200 h -600 Z" class="grey-1 done" />
    <rect x="0" y="870" height="400" width="100%" class="white done" />
</g>

<text x="25" y="90" class="br main red">
    <tspan>INTERCITY SLEEPERS</tspan>
    <tspan class="ms" x="25" dy="40">Now available with saver fares</tspan>
</text>
<text x="25" y="90" class="br main black" clip-path="url(#fullclip)">
    <tspan>INTERCITY SLEEPERS</tspan>
    <tspan class="ms" x="25" dy="40">Now available with saver fares</tspan>
</text>
<use x="50%" y="897" xlink:href="#brlogo" />
<text x="167" y="940">
    <tspan class="br sub black train">We<tspan class="lsp">’</tspan>re getting there</tspan>
</text>
<text x="30" y="844" class="hel black detail">
    <tspan>Even cheaper with a Railcard. Sleepers run every night from London to Scotland, the North East, the North West, and the West</tspan>
    <tspan x="30" dy="10">of England. Also Bristol/Birmingham to Scotland. For full details pick up a leaflet at BR stations and Rail appointed travel agents.</tspan>
</text>
</svg>
